<svg viewBox="0 0 24 24" fill="none" xmlns="http://www.w3.org/2000/svg">
<path d="M15.4686 7.15932H16.3285M7.72942 7.15932H8.58927M15.4686 10.5991H18.0484C18.0484 9.73923 18.6258 9.30931 19.3381 9.30931V5.00986C18.6258 5.00986 18.0484 4.57973 18.0484 3.71989H6.00968C6.00968 4.57973 5.432 5.00986 4.7197 5.00986V9.30931C5.43221 9.30931 6.00968 9.73923 6.00968 10.5991H12.029M15.4686 12.319L21.058 12.3188V2H3V12.3188H12.029M14.6087 13.6088H15.4685C15.7394 13.6088 16.1639 13.7805 16.3286 14.0387M16.3286 14.0387H17.1884C17.5914 14.0387 18.0483 14.4149 18.0483 14.8986M16.3286 14.0387V16.1885M18.0483 14.8986H18.9081C19.3114 14.8986 19.7681 15.2747 19.7681 15.7584V19.6282C19.7681 20.498 18.9081 21.1987 18.9081 21.7778V22.2079M18.0483 14.8986L18.0483 16.6184M14.6087 16.1886V11.0291C14.613 10.5541 14.2237 10.1736 13.7488 10.169C13.2739 10.1648 12.8927 10.5402 12.8883 11.0151C12.8883 11.0151 12.8887 16.1821 12.889 17.5836C12.889 17.7015 12.742 17.7559 12.6639 17.6674L12.6469 17.6482C12.331 17.2899 11.6627 16.532 11.1691 16.1886C10.8492 15.9662 10.4107 15.9487 10.0564 16.1156C9.55793 16.3509 9.45456 17.0128 9.82384 17.4223C10.9348 18.6543 11.3281 19.8766 12.459 20.9179C12.9112 21.3704 12.889 21.536 12.889 21.7778V22.2079M10.3091 7.15932C10.3091 8.1094 11.0792 8.87923 12.029 8.87923C12.9789 8.87923 13.7487 8.1094 13.7487 7.15932C13.7487 6.20945 12.9789 5.43962 12.029 5.43962C11.0792 5.43962 10.3091 6.20945 10.3091 7.15932Z"/>
</svg>
