<svg width="96" height="96" viewBox="0 0 24 24" fill="none" xmlns="http://www.w3.org/2000/svg">
<path d="M3.28992 19.338V9.01925C3.28992 8.54432 3.67504 8.15921 4.14976 8.15921H8.01949M20.4881 13.3188V19.3381M8.87928 9.87919V4.28997C8.87928 3.57746 9.45676 3 10.1691 3H20.4881C21.2006 3 21.778 3.57746 21.778 4.28997V11.169C21.778 11.8813 21.2006 12.4589 20.4881 12.4589H17.0485L13.9127 15.5945C13.642 15.8654 13.1787 15.6737 13.1787 15.2904V12.4589H11.459M12.319 18.4782V17.787C12.319 16.5878 9.83758 15.8985 8.87937 15.8985C7.92095 15.8985 5.43978 16.5878 5.43978 17.787V18.4782M14.0388 8.58932V9.01924C14.0388 9.44667 14.4333 9.87909 14.9082 9.87909H15.7585C16.2334 9.87909 16.6185 9.44667 16.6185 9.01924V8.889C16.6185 8.55619 16.3864 8.26027 16.0352 8.15503L14.6292 7.73385C14.278 7.62861 14.0388 7.3329 14.0388 6.99967V6.86942C14.0388 6.442 14.4237 6.00957 14.8986 6.00957H15.7585C16.2334 6.00957 16.6185 6.442 16.6185 6.86942V7.29955M15.3286 6.00958V4.71981M15.3286 9.87917V11.1689M8.87928 10.7391C7.93379 10.7391 7.15959 11.5057 7.15959 12.4512V12.8989C7.15959 13.8444 7.93379 14.6111 8.87928 14.6111C9.82499 14.6111 10.599 13.8444 10.599 12.8989V12.4512C10.599 11.5057 9.82499 10.7391 8.87928 10.7391ZM21.7779 19.3381H14.0387L13.1788 20.1981H11.029L10.1692 19.3381H2V19.768C2 20.7178 2.77002 21.4879 3.7199 21.4879H20.058C21.0079 21.4879 21.7779 20.7178 21.7779 19.768V19.3381Z" />
</svg>
