<svg width="96" height="96" viewBox="0 0 24 24" fill="none" xmlns="http://www.w3.org/2000/svg">
<path d="M13.485 9.00296L14.0451 8.44279M8.44273 14.0452L9.0029 13.485M15.7261 11.244L17.4066 9.56351C16.8464 9.00313 16.9425 8.34689 17.4066 7.88258L14.6055 5.0815C14.1414 5.5454 13.485 5.64168 12.9248 5.0815L5.08135 12.9248C5.64152 13.4849 5.54545 14.1414 5.08135 14.6055L7.88242 17.4066C8.34652 16.9427 9.00297 16.8466 9.56335 17.4066L11.1607 15.8094M17.7519 11.4589L20.488 8.72287L13.7651 2L2 13.765L8.72289 20.488L11.4589 17.7519M18.6726 18.6727L21.3478 21.3479M10.1235 12.3646C10.7424 12.9833 11.7456 12.9833 12.3643 12.3646C12.9833 11.7456 12.9833 10.7424 12.3643 10.1235C11.7456 9.50455 10.7422 9.50455 10.1235 10.1235C9.50451 10.7424 9.50472 11.7456 10.1235 12.3646ZM19.6758 15.9975C19.6758 18.0289 18.0289 19.6757 15.9974 19.6757C13.9658 19.6757 12.3188 18.0289 12.3188 15.9975C12.3188 13.9658 13.9658 12.3191 15.9974 12.3191C18.0289 12.3191 19.6758 13.9658 19.6758 15.9975Z"/>
</svg>
