<svg width="96" height="96" viewBox="0 0 24 24" fill="none" xmlns="http://www.w3.org/2000/svg">
<path d="M9.30933 14.0388C8.73624 13.7341 7.62506 13.2146 6.72958 13.1787H4.57975C3.03906 13.1787 2 13.8287 2 15.7585V17.4784C2 19.1981 3.3923 19.628 4.57975 19.628H6.29965M4.14975 15.3287V17.0484C4.14975 17.2859 4.34231 17.4783 4.57967 17.4783H7.15942M3.71983 19.6281V21.7777M8.44927 20.4879V21.7777M5.86952 15.3287L8.01934 16.6184M11.8889 17.0483L12.7488 15.3287H8.44935L5.8696 20.4879H10.169L11.0291 18.7682M14.0387 7.15945V7.58937C14.0387 8.01679 14.4332 8.44922 14.9081 8.44922H15.7584C16.2335 8.44922 16.6184 8.01679 16.6184 7.58937V7.45911C16.6184 7.1263 16.3863 6.8306 16.0351 6.72515L14.6291 6.30397C14.2779 6.19873 14.0387 5.90303 14.0387 5.5698V5.43976C14.0387 5.01213 14.4236 4.5797 14.8985 4.5797H15.7584C16.2335 4.5797 16.6184 5.01213 16.6184 5.43976V5.86967M15.3285 4.5797V3.28994M15.3285 8.44929V9.73906M5.86952 11.8889C6.85399 11.8889 7.58921 11.064 7.58921 10.0464V9.43188C7.58921 8.41428 6.85399 7.58943 5.86952 7.58943C4.88505 7.58943 4.14982 8.41428 4.14982 9.43188V10.0464C4.14982 11.064 4.88505 11.8889 5.86952 11.8889ZM11.3574 18.7682H9.73904L10.5991 17.0483H12.0531C12.3728 17.0483 12.5805 17.3847 12.4378 17.6706L12.1264 18.2929C11.981 18.5842 11.6832 18.7682 11.3574 18.7682ZM10.5991 2H20.058C20.7703 2 21.3478 2.57746 21.3478 3.28976V9.3091C21.3478 10.259 20.5778 11.029 19.6281 11.029H14.0387L12.2329 13.4368C11.9849 13.7674 11.4589 13.5921 11.4589 13.1788V11.029H10.5991C9.88676 11.029 9.30929 10.4518 9.30929 9.73925V3.28976C9.30929 2.57746 9.88676 2 10.5991 2Z" />
</svg>
